{
    "asset" : {
        "copyright" : "loafbrr",
        "generator" : "Khronos glTF Blender I/O v1.7.33",
        "version" : "2.0"
    },
    "scene" : 0,
    "scenes" : [
        {
            "name" : "Scene",
            "nodes" : [
                1,
                3,
                5
            ]
        }
    ],
    "nodes" : [
        {
            "mesh" : 0,
            "name" : "Crate_Collision-colonly",
            "scale" : [
                0.4141472578048706,
                0.4141472578048706,
                0.4141472578048706
            ]
        },
        {
            "children" : [
                0
            ],
            "mesh" : 1,
            "name" : "Crate",
            "translation" : [
                0,
                0,
                1.2300829887390137
            ]
        },
        {
            "mesh" : 2,
            "name" : "Crate_Broken_2_CollisionMesh-colonly"
        },
        {
            "children" : [
                2
            ],
            "mesh" : 3,
            "name" : "Crate_Broken_2",
            "translation" : [
                0,
                0,
                -2.570889711380005
            ]
        },
        {
            "mesh" : 4,
            "name" : "Crate_Broken_CollisionMesh-colonly",
            "rotation" : [
                0,
                -0.7071068286895752,
                0,
                0.7071068286895752
            ]
        },
        {
            "children" : [
                4
            ],
            "mesh" : 5,
            "name" : "Crate_Broken_1",
            "rotation" : [
                0,
                0.7071068286895752,
                0,
                0.7071068286895752
            ],
            "translation" : [
                0,
                0,
                -1.335773229598999
            ]
        }
    ],
    "materials" : [
        {
            "doubleSided" : true,
            "name" : "CrateMaterial",
            "normalTexture" : {
                "index" : 0
            },
            "pbrMetallicRoughness" : {
                "baseColorTexture" : {
                    "index" : 1
                },
                "metallicRoughnessTexture" : {
                    "index" : 2
                }
            }
        }
    ],
    "meshes" : [
        {
            "name" : "Cube",
            "primitives" : [
                {
                    "attributes" : {
                        "POSITION" : 0,
                        "NORMAL" : 1,
                        "TEXCOORD_0" : 2
                    },
                    "indices" : 3
                }
            ]
        },
        {
            "name" : "Plane.001",
            "primitives" : [
                {
                    "attributes" : {
                        "POSITION" : 4,
                        "NORMAL" : 5,
                        "TEXCOORD_0" : 6
                    },
                    "indices" : 7,
                    "material" : 0
                }
            ]
        },
        {
            "name" : "Cube.001",
            "primitives" : [
                {
                    "attributes" : {
                        "POSITION" : 8,
                        "NORMAL" : 9,
                        "TEXCOORD_0" : 10
                    },
                    "indices" : 11
                }
            ]
        },
        {
            "name" : "Plane.013",
            "primitives" : [
                {
                    "attributes" : {
                        "POSITION" : 12,
                        "NORMAL" : 13,
                        "TEXCOORD_0" : 14
                    },
                    "indices" : 15,
                    "material" : 0
                }
            ]
        },
        {
            "name" : "Cube.002",
            "primitives" : [
                {
                    "attributes" : {
                        "POSITION" : 16,
                        "NORMAL" : 17,
                        "TEXCOORD_0" : 18
                    },
                    "indices" : 11
                }
            ]
        },
        {
            "name" : "Plane.004",
            "primitives" : [
                {
                    "attributes" : {
                        "POSITION" : 19,
                        "NORMAL" : 20,
                        "TEXCOORD_0" : 21
                    },
                    "indices" : 22,
                    "material" : 0
                }
            ]
        }
    ],
    "textures" : [
        {
            "sampler" : 0,
            "source" : 0
        },
        {
            "sampler" : 0,
            "source" : 1
        },
        {
            "sampler" : 0,
            "source" : 2
        }
    ],
    "images" : [
        {
            "bufferView" : 8,
            "mimeType" : "image/png",
            "name" : "NORMAL_Crates"
        },
        {
            "bufferView" : 9,
            "mimeType" : "image/png",
            "name" : "Base Color_Crates"
        },
        {
            "bufferView" : 10,
            "mimeType" : "image/png",
            "name" : "METALLIC_Crates-ROUGHNESS_Crates"
        }
    ],
    "accessors" : [
        {
            "bufferView" : 0,
            "componentType" : 5126,
            "count" : 24,
            "max" : [
                1,
                2,
                1
            ],
            "min" : [
                -1,
                0,
                -1
            ],
            "type" : "VEC3"
        },
        {
            "bufferView" : 1,
            "componentType" : 5126,
            "count" : 24,
            "type" : "VEC3"
        },
        {
            "bufferView" : 2,
            "componentType" : 5126,
            "count" : 24,
            "type" : "VEC2"
        },
        {
            "bufferView" : 3,
            "componentType" : 5123,
            "count" : 36,
            "type" : "SCALAR"
        },
        {
            "bufferView" : 4,
            "componentType" : 5126,
            "count" : 248,
            "max" : [
                0.41414737701416016,
                0.8282947540283203,
                0.41414713859558105
            ],
            "min" : [
                -0.41414737701416016,
                0,
                -0.41414713859558105
            ],
            "type" : "VEC3"
        },
        {
            "bufferView" : 5,
            "componentType" : 5126,
            "count" : 248,
            "type" : "VEC3"
        },
        {
            "bufferView" : 6,
            "componentType" : 5126,
            "count" : 248,
            "type" : "VEC2"
        },
        {
            "bufferView" : 7,
            "componentType" : 5123,
            "count" : 372,
            "type" : "SCALAR"
        },
        {
            "bufferView" : 11,
            "componentType" : 5126,
            "count" : 48,
            "max" : [
                0.4141472578048706,
                0.6128522157669067,
                0.4141472578048706
            ],
            "min" : [
                -0.4141472578048706,
                0,
                -0.4141472578048706
            ],
            "type" : "VEC3"
        },
        {
            "bufferView" : 12,
            "componentType" : 5126,
            "count" : 48,
            "type" : "VEC3"
        },
        {
            "bufferView" : 13,
            "componentType" : 5126,
            "count" : 48,
            "type" : "VEC2"
        },
        {
            "bufferView" : 14,
            "componentType" : 5123,
            "count" : 84,
            "type" : "SCALAR"
        },
        {
            "bufferView" : 15,
            "componentType" : 5126,
            "count" : 307,
            "max" : [
                0.4141475260257721,
                0.6891883015632629,
                0.41414737701416016
            ],
            "min" : [
                -0.4141475260257721,
                0,
                -0.41414737701416016
            ],
            "type" : "VEC3"
        },
        {
            "bufferView" : 16,
            "componentType" : 5126,
            "count" : 307,
            "type" : "VEC3"
        },
        {
            "bufferView" : 17,
            "componentType" : 5126,
            "count" : 307,
            "type" : "VEC2"
        },
        {
            "bufferView" : 18,
            "componentType" : 5123,
            "count" : 495,
            "type" : "SCALAR"
        },
        {
            "bufferView" : 19,
            "componentType" : 5126,
            "count" : 48,
            "max" : [
                0.4141472578048706,
                0.6128522157669067,
                0.4141472578048706
            ],
            "min" : [
                -0.4141472578048706,
                0,
                -0.4141472578048706
            ],
            "type" : "VEC3"
        },
        {
            "bufferView" : 20,
            "componentType" : 5126,
            "count" : 48,
            "type" : "VEC3"
        },
        {
            "bufferView" : 21,
            "componentType" : 5126,
            "count" : 48,
            "type" : "VEC2"
        },
        {
            "bufferView" : 22,
            "componentType" : 5126,
            "count" : 311,
            "max" : [
                0.4141475260257721,
                0.6610608100891113,
                0.41414743661880493
            ],
            "min" : [
                -0.4141477942466736,
                0,
                -0.41414710879325867
            ],
            "type" : "VEC3"
        },
        {
            "bufferView" : 23,
            "componentType" : 5126,
            "count" : 311,
            "type" : "VEC3"
        },
        {
            "bufferView" : 24,
            "componentType" : 5126,
            "count" : 311,
            "type" : "VEC2"
        },
        {
            "bufferView" : 25,
            "componentType" : 5123,
            "count" : 507,
            "type" : "SCALAR"
        }
    ],
    "bufferViews" : [
        {
            "buffer" : 0,
            "byteLength" : 288,
            "byteOffset" : 0
        },
        {
            "buffer" : 0,
            "byteLength" : 288,
            "byteOffset" : 288
        },
        {
            "buffer" : 0,
            "byteLength" : 192,
            "byteOffset" : 576
        },
        {
            "buffer" : 0,
            "byteLength" : 72,
            "byteOffset" : 768
        },
        {
            "buffer" : 0,
            "byteLength" : 2976,
            "byteOffset" : 840
        },
        {
            "buffer" : 0,
            "byteLength" : 2976,
            "byteOffset" : 3816
        },
        {
            "buffer" : 0,
            "byteLength" : 1984,
            "byteOffset" : 6792
        },
        {
            "buffer" : 0,
            "byteLength" : 744,
            "byteOffset" : 8776
        },
        {
            "buffer" : 0,
            "byteLength" : 1173210,
            "byteOffset" : 9520
        },
        {
            "buffer" : 0,
            "byteLength" : 860343,
            "byteOffset" : 1182732
        },
        {
            "buffer" : 0,
            "byteLength" : 637622,
            "byteOffset" : 2043076
        },
        {
            "buffer" : 0,
            "byteLength" : 576,
            "byteOffset" : 2680700
        },
        {
            "buffer" : 0,
            "byteLength" : 576,
            "byteOffset" : 2681276
        },
        {
            "buffer" : 0,
            "byteLength" : 384,
            "byteOffset" : 2681852
        },
        {
            "buffer" : 0,
            "byteLength" : 168,
            "byteOffset" : 2682236
        },
        {
            "buffer" : 0,
            "byteLength" : 3684,
            "byteOffset" : 2682404
        },
        {
            "buffer" : 0,
            "byteLength" : 3684,
            "byteOffset" : 2686088
        },
        {
            "buffer" : 0,
            "byteLength" : 2456,
            "byteOffset" : 2689772
        },
        {
            "buffer" : 0,
            "byteLength" : 990,
            "byteOffset" : 2692228
        },
        {
            "buffer" : 0,
            "byteLength" : 576,
            "byteOffset" : 2693220
        },
        {
            "buffer" : 0,
            "byteLength" : 576,
            "byteOffset" : 2693796
        },
        {
            "buffer" : 0,
            "byteLength" : 384,
            "byteOffset" : 2694372
        },
        {
            "buffer" : 0,
            "byteLength" : 3732,
            "byteOffset" : 2694756
        },
        {
            "buffer" : 0,
            "byteLength" : 3732,
            "byteOffset" : 2698488
        },
        {
            "buffer" : 0,
            "byteLength" : 2488,
            "byteOffset" : 2702220
        },
        {
            "buffer" : 0,
            "byteLength" : 1014,
            "byteOffset" : 2704708
        }
    ],
    "samplers" : [
        {
            "magFilter" : 9729,
            "minFilter" : 9987
        }
    ],
    "buffers" : [
        {
            "byteLength" : 2705724,
            "uri" : "data:application/octet-stream;base64,"
        }
    ]
}
