{
    "asset" : {
        "copyright" : "loafbrr",
        "generator" : "Khronos glTF Blender I/O v1.7.33",
        "version" : "2.0"
    },
    "scene" : 0,
    "scenes" : [
        {
            "name" : "Scene",
            "nodes" : [
                1,
                3,
                5,
                7,
                9
            ]
        }
    ],
    "nodes" : [
        {
            "mesh" : 0,
            "name" : "Jar_Broken_1_CollisionMesh-colonly",
            "scale" : [
                0.3133837878704071,
                0.2941845655441284,
                0.3133837878704071
            ]
        },
        {
            "children" : [
                0
            ],
            "mesh" : 1,
            "name" : "Jar_Broken_1",
            "translation" : [
                -2.163407802581787,
                0,
                -0.01750326156616211
            ]
        },
        {
            "mesh" : 2,
            "name" : "Jar_Broken_2_CollisionMesh-colonly"
        },
        {
            "children" : [
                2
            ],
            "mesh" : 3,
            "name" : "Jar_Broken_2",
            "translation" : [
                -2.1391468048095703,
                0,
                -1.2810673713684082
            ]
        },
        {
            "mesh" : 4,
            "name" : "Jar_Broken_3_CollisionMesh-colonly"
        },
        {
            "children" : [
                4
            ],
            "mesh" : 5,
            "name" : "Jar_Broken_3",
            "translation" : [
                -2.301417350769043,
                0,
                -0.6261017918586731
            ]
        },
        {
            "mesh" : 6,
            "name" : "Jar_CollisionMesh-colonly",
            "scale" : [
                0.3133837878704071,
                0.2941845655441284,
                0.3133837878704071
            ]
        },
        {
            "children" : [
                6
            ],
            "mesh" : 7,
            "name" : "Jar",
            "translation" : [
                -3.050293207168579,
                0,
                -0.01750326156616211
            ]
        },
        {
            "mesh" : 8,
            "name" : "Jar_Broken_4_CollisionMesh-colonly",
            "scale" : [
                0.3133837878704071,
                0.2941845655441284,
                0.3133837878704071
            ]
        },
        {
            "children" : [
                8
            ],
            "mesh" : 9,
            "name" : "Jar_Broken_4",
            "translation" : [
                -2.163407802581787,
                0,
                0.8775907754898071
            ]
        }
    ],
    "materials" : [
        {
            "doubleSided" : true,
            "name" : "JarMaterial",
            "normalTexture" : {
                "index" : 0
            },
            "pbrMetallicRoughness" : {
                "baseColorTexture" : {
                    "index" : 1
                },
                "metallicFactor" : 0,
                "metallicRoughnessTexture" : {
                    "index" : 2
                }
            }
        }
    ],
    "meshes" : [
        {
            "name" : "Cylinder.014",
            "primitives" : [
                {
                    "attributes" : {
                        "POSITION" : 0,
                        "NORMAL" : 1,
                        "TEXCOORD_0" : 2
                    },
                    "indices" : 3
                }
            ]
        },
        {
            "name" : "Cylinder.029",
            "primitives" : [
                {
                    "attributes" : {
                        "POSITION" : 4,
                        "NORMAL" : 5,
                        "TEXCOORD_0" : 6
                    },
                    "indices" : 7,
                    "material" : 0
                }
            ]
        },
        {
            "name" : "Cylinder.010",
            "primitives" : [
                {
                    "attributes" : {
                        "POSITION" : 8,
                        "NORMAL" : 9,
                        "TEXCOORD_0" : 10
                    },
                    "indices" : 11
                }
            ]
        },
        {
            "name" : "Cylinder.008",
            "primitives" : [
                {
                    "attributes" : {
                        "POSITION" : 12,
                        "NORMAL" : 13,
                        "TEXCOORD_0" : 14
                    },
                    "indices" : 15,
                    "material" : 0
                }
            ]
        },
        {
            "name" : "Cylinder.011",
            "primitives" : [
                {
                    "attributes" : {
                        "POSITION" : 16,
                        "NORMAL" : 17,
                        "TEXCOORD_0" : 18
                    },
                    "indices" : 19
                }
            ]
        },
        {
            "name" : "Cylinder.009",
            "primitives" : [
                {
                    "attributes" : {
                        "POSITION" : 20,
                        "NORMAL" : 21,
                        "TEXCOORD_0" : 22
                    },
                    "indices" : 23,
                    "material" : 0
                }
            ]
        },
        {
            "name" : "Cylinder.013",
            "primitives" : [
                {
                    "attributes" : {
                        "POSITION" : 24,
                        "NORMAL" : 25,
                        "TEXCOORD_0" : 26
                    },
                    "indices" : 27
                }
            ]
        },
        {
            "name" : "Cylinder.001",
            "primitives" : [
                {
                    "attributes" : {
                        "POSITION" : 28,
                        "NORMAL" : 29,
                        "TEXCOORD_0" : 30
                    },
                    "indices" : 31,
                    "material" : 0
                }
            ]
        },
        {
            "name" : "Cylinder.012",
            "primitives" : [
                {
                    "attributes" : {
                        "POSITION" : 32,
                        "NORMAL" : 33,
                        "TEXCOORD_0" : 34
                    },
                    "indices" : 35
                }
            ]
        },
        {
            "name" : "Cylinder.007",
            "primitives" : [
                {
                    "attributes" : {
                        "POSITION" : 36,
                        "NORMAL" : 37,
                        "TEXCOORD_0" : 38
                    },
                    "indices" : 39,
                    "material" : 0
                }
            ]
        }
    ],
    "textures" : [
        {
            "sampler" : 0,
            "source" : 0
        },
        {
            "sampler" : 0,
            "source" : 1
        },
        {
            "sampler" : 0,
            "source" : 2
        }
    ],
    "images" : [
        {
            "bufferView" : 8,
            "mimeType" : "image/png",
            "name" : "NORMAL_Jar"
        },
        {
            "bufferView" : 9,
            "mimeType" : "image/png",
            "name" : "Base Color_Jar"
        },
        {
            "bufferView" : 10,
            "mimeType" : "image/png",
            "name" : "ROUGHNESS_Jar"
        }
    ],
    "accessors" : [
        {
            "bufferView" : 0,
            "componentType" : 5126,
            "count" : 108,
            "max" : [
                1.0389920473098755,
                1.0751681327819824,
                1.038992166519165
            ],
            "min" : [
                -1.0389922857284546,
                0,
                -1.038992166519165
            ],
            "type" : "VEC3"
        },
        {
            "bufferView" : 1,
            "componentType" : 5126,
            "count" : 108,
            "type" : "VEC3"
        },
        {
            "bufferView" : 2,
            "componentType" : 5126,
            "count" : 108,
            "type" : "VEC2"
        },
        {
            "bufferView" : 3,
            "componentType" : 5123,
            "count" : 180,
            "type" : "SCALAR"
        },
        {
            "bufferView" : 4,
            "componentType" : 5126,
            "count" : 166,
            "max" : [
                0.2881348431110382,
                0.32707348465919495,
                0.2897292673587799
            ],
            "min" : [
                -0.29021215438842773,
                0,
                -0.2889237105846405
            ],
            "type" : "VEC3"
        },
        {
            "bufferView" : 5,
            "componentType" : 5126,
            "count" : 166,
            "type" : "VEC3"
        },
        {
            "bufferView" : 6,
            "componentType" : 5126,
            "count" : 166,
            "type" : "VEC2"
        },
        {
            "bufferView" : 7,
            "componentType" : 5123,
            "count" : 564,
            "type" : "SCALAR"
        },
        {
            "bufferView" : 11,
            "componentType" : 5126,
            "count" : 139,
            "max" : [
                0.2803359925746918,
                0.29615485668182373,
                0.29475390911102295
            ],
            "min" : [
                -0.3177666962146759,
                0,
                -0.3168937861919403
            ],
            "type" : "VEC3"
        },
        {
            "bufferView" : 12,
            "componentType" : 5126,
            "count" : 139,
            "type" : "VEC3"
        },
        {
            "bufferView" : 13,
            "componentType" : 5126,
            "count" : 139,
            "type" : "VEC2"
        },
        {
            "bufferView" : 14,
            "componentType" : 5123,
            "count" : 486,
            "type" : "SCALAR"
        },
        {
            "bufferView" : 15,
            "componentType" : 5126,
            "count" : 290,
            "max" : [
                0.2717062532901764,
                0.2961548864841461,
                0.28027358651161194
            ],
            "min" : [
                -0.3083433210849762,
                0,
                -0.31102851033210754
            ],
            "type" : "VEC3"
        },
        {
            "bufferView" : 16,
            "componentType" : 5126,
            "count" : 290,
            "type" : "VEC3"
        },
        {
            "bufferView" : 17,
            "componentType" : 5126,
            "count" : 290,
            "type" : "VEC2"
        },
        {
            "bufferView" : 18,
            "componentType" : 5123,
            "count" : 1272,
            "type" : "SCALAR"
        },
        {
            "bufferView" : 19,
            "componentType" : 5126,
            "count" : 74,
            "max" : [
                0.11495993286371231,
                0.29398536682128906,
                0.14865551888942719
            ],
            "min" : [
                -0.16075588762760162,
                0.009605050086975098,
                -0.19583064317703247
            ],
            "type" : "VEC3"
        },
        {
            "bufferView" : 20,
            "componentType" : 5126,
            "count" : 74,
            "type" : "VEC3"
        },
        {
            "bufferView" : 21,
            "componentType" : 5126,
            "count" : 74,
            "type" : "VEC2"
        },
        {
            "bufferView" : 22,
            "componentType" : 5123,
            "count" : 216,
            "type" : "SCALAR"
        },
        {
            "bufferView" : 23,
            "componentType" : 5126,
            "count" : 140,
            "max" : [
                0.11495993286371231,
                0.2956148684024811,
                0.16024652123451233
            ],
            "min" : [
                -0.15732510387897491,
                0,
                -0.1950232982635498
            ],
            "type" : "VEC3"
        },
        {
            "bufferView" : 24,
            "componentType" : 5126,
            "count" : 140,
            "type" : "VEC3"
        },
        {
            "bufferView" : 25,
            "componentType" : 5126,
            "count" : 140,
            "type" : "VEC2"
        },
        {
            "bufferView" : 26,
            "componentType" : 5123,
            "count" : 552,
            "type" : "SCALAR"
        },
        {
            "bufferView" : 27,
            "componentType" : 5126,
            "count" : 200,
            "max" : [
                0.9999999403953552,
                2.013500213623047,
                0.9999999403953552
            ],
            "min" : [
                -0.9999999403953552,
                0,
                -0.9999999403953552
            ],
            "type" : "VEC3"
        },
        {
            "bufferView" : 28,
            "componentType" : 5126,
            "count" : 200,
            "type" : "VEC3"
        },
        {
            "bufferView" : 29,
            "componentType" : 5126,
            "count" : 200,
            "type" : "VEC2"
        },
        {
            "bufferView" : 30,
            "componentType" : 5123,
            "count" : 324,
            "type" : "SCALAR"
        },
        {
            "bufferView" : 31,
            "componentType" : 5126,
            "count" : 288,
            "max" : [
                0.2956511974334717,
                0.5883691906929016,
                0.29565104842185974
            ],
            "min" : [
                -0.2956509292125702,
                0,
                -0.29565104842185974
            ],
            "type" : "VEC3"
        },
        {
            "bufferView" : 32,
            "componentType" : 5126,
            "count" : 288,
            "type" : "VEC3"
        },
        {
            "bufferView" : 33,
            "componentType" : 5126,
            "count" : 288,
            "type" : "VEC2"
        },
        {
            "bufferView" : 34,
            "componentType" : 5123,
            "count" : 1386,
            "type" : "SCALAR"
        },
        {
            "bufferView" : 35,
            "componentType" : 5126,
            "count" : 112,
            "max" : [
                1.0389920473098755,
                1.1781853437423706,
                1.038992166519165
            ],
            "min" : [
                -1.0389922857284546,
                0,
                -1.038992166519165
            ],
            "type" : "VEC3"
        },
        {
            "bufferView" : 36,
            "componentType" : 5126,
            "count" : 112,
            "type" : "VEC3"
        },
        {
            "bufferView" : 37,
            "componentType" : 5126,
            "count" : 112,
            "type" : "VEC2"
        },
        {
            "bufferView" : 38,
            "componentType" : 5123,
            "count" : 180,
            "type" : "SCALAR"
        },
        {
            "bufferView" : 39,
            "componentType" : 5126,
            "count" : 166,
            "max" : [
                0.2881348431110382,
                0.34785333275794983,
                0.2897292673587799
            ],
            "min" : [
                -0.29021215438842773,
                0,
                -0.2889237105846405
            ],
            "type" : "VEC3"
        },
        {
            "bufferView" : 40,
            "componentType" : 5126,
            "count" : 166,
            "type" : "VEC3"
        },
        {
            "bufferView" : 41,
            "componentType" : 5126,
            "count" : 166,
            "type" : "VEC2"
        },
        {
            "bufferView" : 42,
            "componentType" : 5123,
            "count" : 564,
            "type" : "SCALAR"
        }
    ],
    "bufferViews" : [
        {
            "buffer" : 0,
            "byteLength" : 1296,
            "byteOffset" : 0
        },
        {
            "buffer" : 0,
            "byteLength" : 1296,
            "byteOffset" : 1296
        },
        {
            "buffer" : 0,
            "byteLength" : 864,
            "byteOffset" : 2592
        },
        {
            "buffer" : 0,
            "byteLength" : 360,
            "byteOffset" : 3456
        },
        {
            "buffer" : 0,
            "byteLength" : 1992,
            "byteOffset" : 3816
        },
        {
            "buffer" : 0,
            "byteLength" : 1992,
            "byteOffset" : 5808
        },
        {
            "buffer" : 0,
            "byteLength" : 1328,
            "byteOffset" : 7800
        },
        {
            "buffer" : 0,
            "byteLength" : 1128,
            "byteOffset" : 9128
        },
        {
            "buffer" : 0,
            "byteLength" : 1198789,
            "byteOffset" : 10256
        },
        {
            "buffer" : 0,
            "byteLength" : 1032702,
            "byteOffset" : 1209048
        },
        {
            "buffer" : 0,
            "byteLength" : 713854,
            "byteOffset" : 2241752
        },
        {
            "buffer" : 0,
            "byteLength" : 1668,
            "byteOffset" : 2955608
        },
        {
            "buffer" : 0,
            "byteLength" : 1668,
            "byteOffset" : 2957276
        },
        {
            "buffer" : 0,
            "byteLength" : 1112,
            "byteOffset" : 2958944
        },
        {
            "buffer" : 0,
            "byteLength" : 972,
            "byteOffset" : 2960056
        },
        {
            "buffer" : 0,
            "byteLength" : 3480,
            "byteOffset" : 2961028
        },
        {
            "buffer" : 0,
            "byteLength" : 3480,
            "byteOffset" : 2964508
        },
        {
            "buffer" : 0,
            "byteLength" : 2320,
            "byteOffset" : 2967988
        },
        {
            "buffer" : 0,
            "byteLength" : 2544,
            "byteOffset" : 2970308
        },
        {
            "buffer" : 0,
            "byteLength" : 888,
            "byteOffset" : 2972852
        },
        {
            "buffer" : 0,
            "byteLength" : 888,
            "byteOffset" : 2973740
        },
        {
            "buffer" : 0,
            "byteLength" : 592,
            "byteOffset" : 2974628
        },
        {
            "buffer" : 0,
            "byteLength" : 432,
            "byteOffset" : 2975220
        },
        {
            "buffer" : 0,
            "byteLength" : 1680,
            "byteOffset" : 2975652
        },
        {
            "buffer" : 0,
            "byteLength" : 1680,
            "byteOffset" : 2977332
        },
        {
            "buffer" : 0,
            "byteLength" : 1120,
            "byteOffset" : 2979012
        },
        {
            "buffer" : 0,
            "byteLength" : 1104,
            "byteOffset" : 2980132
        },
        {
            "buffer" : 0,
            "byteLength" : 2400,
            "byteOffset" : 2981236
        },
        {
            "buffer" : 0,
            "byteLength" : 2400,
            "byteOffset" : 2983636
        },
        {
            "buffer" : 0,
            "byteLength" : 1600,
            "byteOffset" : 2986036
        },
        {
            "buffer" : 0,
            "byteLength" : 648,
            "byteOffset" : 2987636
        },
        {
            "buffer" : 0,
            "byteLength" : 3456,
            "byteOffset" : 2988284
        },
        {
            "buffer" : 0,
            "byteLength" : 3456,
            "byteOffset" : 2991740
        },
        {
            "buffer" : 0,
            "byteLength" : 2304,
            "byteOffset" : 2995196
        },
        {
            "buffer" : 0,
            "byteLength" : 2772,
            "byteOffset" : 2997500
        },
        {
            "buffer" : 0,
            "byteLength" : 1344,
            "byteOffset" : 3000272
        },
        {
            "buffer" : 0,
            "byteLength" : 1344,
            "byteOffset" : 3001616
        },
        {
            "buffer" : 0,
            "byteLength" : 896,
            "byteOffset" : 3002960
        },
        {
            "buffer" : 0,
            "byteLength" : 360,
            "byteOffset" : 3003856
        },
        {
            "buffer" : 0,
            "byteLength" : 1992,
            "byteOffset" : 3004216
        },
        {
            "buffer" : 0,
            "byteLength" : 1992,
            "byteOffset" : 3006208
        },
        {
            "buffer" : 0,
            "byteLength" : 1328,
            "byteOffset" : 3008200
        },
        {
            "buffer" : 0,
            "byteLength" : 1128,
            "byteOffset" : 3009528
        }
    ],
    "samplers" : [
        {
            "magFilter" : 9729,
            "minFilter" : 9987
        }
    ],
    "buffers" : [
        {
            "byteLength" : 3010656,
            "uri" : "data:application/octet-stream;base64,"
        }
    ]
}
