{
    "asset" : {
        "copyright" : "loafbrr",
        "generator" : "Khronos glTF Blender I/O v1.7.33",
        "version" : "2.0"
    },
    "scene" : 0,
    "scenes" : [
        {
            "name" : "Scene",
            "nodes" : [
                1,
                3,
                5,
                7
            ]
        }
    ],
    "nodes" : [
        {
            "mesh" : 0,
            "name" : "Barrel_Broken_2_CollisionMesh-colonly",
            "scale" : [
                0.44057753682136536,
                0.4826192259788513,
                0.44057753682136536
            ]
        },
        {
            "children" : [
                0
            ],
            "mesh" : 1,
            "name" : "Barrel_Broken_1",
            "translation" : [
                2.5721867084503174,
                0,
                2.463416337966919
            ]
        },
        {
            "mesh" : 2,
            "name" : "Barrel_Broken_CollisionMesh-colonly",
            "scale" : [
                0.44057753682136536,
                0.4826192259788513,
                0.44057753682136536
            ]
        },
        {
            "children" : [
                2
            ],
            "mesh" : 3,
            "name" : "Barrel_Broken_2",
            "translation" : [
                2.5721867084503174,
                0,
                1.1930818557739258
            ]
        },
        {
            "mesh" : 4,
            "name" : "Barrel_CollisionMesh-colonly",
            "scale" : [
                0.44057753682136536,
                0.4826192259788513,
                0.44057753682136536
            ]
        },
        {
            "children" : [
                4
            ],
            "mesh" : 5,
            "name" : "Barrel",
            "translation" : [
                2.5721867084503174,
                0,
                0
            ]
        },
        {
            "mesh" : 6,
            "name" : "Barrel_Ring_ColliseionMesh-colonly",
            "scale" : [
                0.4519381523132324,
                0.03895963355898857,
                0.4519381523132324
            ]
        },
        {
            "children" : [
                6
            ],
            "mesh" : 7,
            "name" : "Barrel_Ring",
            "translation" : [
                2.5721867084503174,
                0,
                -1.2450124025344849
            ]
        }
    ],
    "materials" : [
        {
            "doubleSided" : true,
            "name" : "BarrelMaterial",
            "normalTexture" : {
                "index" : 0
            },
            "pbrMetallicRoughness" : {
                "baseColorTexture" : {
                    "index" : 1
                },
                "metallicRoughnessTexture" : {
                    "index" : 2
                }
            }
        }
    ],
    "meshes" : [
        {
            "name" : "Cylinder.006",
            "primitives" : [
                {
                    "attributes" : {
                        "POSITION" : 0,
                        "NORMAL" : 1,
                        "TEXCOORD_0" : 2
                    },
                    "indices" : 3
                }
            ]
        },
        {
            "name" : "Cylinder.031",
            "primitives" : [
                {
                    "attributes" : {
                        "POSITION" : 4,
                        "NORMAL" : 5,
                        "TEXCOORD_0" : 6
                    },
                    "indices" : 7,
                    "material" : 0
                }
            ]
        },
        {
            "name" : "Cylinder.004",
            "primitives" : [
                {
                    "attributes" : {
                        "POSITION" : 8,
                        "NORMAL" : 9,
                        "TEXCOORD_0" : 10
                    },
                    "indices" : 11
                }
            ]
        },
        {
            "name" : "Cylinder.032",
            "primitives" : [
                {
                    "attributes" : {
                        "POSITION" : 12,
                        "NORMAL" : 13,
                        "TEXCOORD_0" : 14
                    },
                    "indices" : 15,
                    "material" : 0
                }
            ]
        },
        {
            "name" : "Cylinder.003",
            "primitives" : [
                {
                    "attributes" : {
                        "POSITION" : 16,
                        "NORMAL" : 17,
                        "TEXCOORD_0" : 18
                    },
                    "indices" : 19
                }
            ]
        },
        {
            "name" : "Cylinder",
            "primitives" : [
                {
                    "attributes" : {
                        "POSITION" : 20,
                        "NORMAL" : 21,
                        "TEXCOORD_0" : 22
                    },
                    "indices" : 23,
                    "material" : 0
                }
            ]
        },
        {
            "name" : "Cylinder.002",
            "primitives" : [
                {
                    "attributes" : {
                        "POSITION" : 24,
                        "NORMAL" : 25,
                        "TEXCOORD_0" : 26
                    },
                    "indices" : 27
                }
            ]
        },
        {
            "name" : "Cylinder.005",
            "primitives" : [
                {
                    "attributes" : {
                        "POSITION" : 28,
                        "NORMAL" : 29,
                        "TEXCOORD_0" : 30
                    },
                    "indices" : 31,
                    "material" : 0
                }
            ]
        }
    ],
    "textures" : [
        {
            "sampler" : 0,
            "source" : 0
        },
        {
            "sampler" : 0,
            "source" : 1
        },
        {
            "sampler" : 0,
            "source" : 2
        }
    ],
    "images" : [
        {
            "bufferView" : 8,
            "mimeType" : "image/png",
            "name" : "NORMAL_BarrelFinal"
        },
        {
            "bufferView" : 9,
            "mimeType" : "image/png",
            "name" : "Base Color_BarrelFinal"
        },
        {
            "bufferView" : 10,
            "mimeType" : "image/png",
            "name" : "METALLIC_BarrelFinal-ROUGHNESS_BarrelFinal"
        }
    ],
    "accessors" : [
        {
            "bufferView" : 0,
            "componentType" : 5126,
            "count" : 168,
            "max" : [
                1,
                1.1006337404251099,
                1
            ],
            "min" : [
                -1,
                1.1920928955078125e-07,
                -1
            ],
            "type" : "VEC3"
        },
        {
            "bufferView" : 1,
            "componentType" : 5126,
            "count" : 168,
            "type" : "VEC3"
        },
        {
            "bufferView" : 2,
            "componentType" : 5126,
            "count" : 168,
            "type" : "VEC2"
        },
        {
            "bufferView" : 3,
            "componentType" : 5123,
            "count" : 276,
            "type" : "SCALAR"
        },
        {
            "bufferView" : 4,
            "componentType" : 5126,
            "count" : 354,
            "max" : [
                0.4205686151981354,
                0.5192884206771851,
                0.4205707609653473
            ],
            "min" : [
                -0.4205785095691681,
                -1.0974237341088156e-07,
                -0.4205763638019562
            ],
            "type" : "VEC3"
        },
        {
            "bufferView" : 5,
            "componentType" : 5126,
            "count" : 354,
            "type" : "VEC3"
        },
        {
            "bufferView" : 6,
            "componentType" : 5126,
            "count" : 354,
            "type" : "VEC2"
        },
        {
            "bufferView" : 7,
            "componentType" : 5123,
            "count" : 1194,
            "type" : "SCALAR"
        },
        {
            "bufferView" : 11,
            "componentType" : 5126,
            "count" : 168,
            "max" : [
                1,
                1.052356243133545,
                1
            ],
            "min" : [
                -1,
                1.1920928955078125e-07,
                -1
            ],
            "type" : "VEC3"
        },
        {
            "bufferView" : 12,
            "componentType" : 5126,
            "count" : 168,
            "type" : "VEC3"
        },
        {
            "bufferView" : 13,
            "componentType" : 5126,
            "count" : 168,
            "type" : "VEC2"
        },
        {
            "bufferView" : 14,
            "componentType" : 5123,
            "count" : 276,
            "type" : "SCALAR"
        },
        {
            "bufferView" : 15,
            "componentType" : 5126,
            "count" : 354,
            "max" : [
                0.4203518331050873,
                0.5046269297599792,
                0.4203473627567291
            ],
            "min" : [
                -0.42036429047584534,
                0,
                -0.4203687310218811
            ],
            "type" : "VEC3"
        },
        {
            "bufferView" : 16,
            "componentType" : 5126,
            "count" : 354,
            "type" : "VEC3"
        },
        {
            "bufferView" : 17,
            "componentType" : 5126,
            "count" : 354,
            "type" : "VEC2"
        },
        {
            "bufferView" : 18,
            "componentType" : 5123,
            "count" : 1194,
            "type" : "SCALAR"
        },
        {
            "bufferView" : 19,
            "componentType" : 5126,
            "count" : 120,
            "max" : [
                1,
                2,
                1
            ],
            "min" : [
                -1,
                1.1920928955078125e-07,
                -1
            ],
            "type" : "VEC3"
        },
        {
            "bufferView" : 20,
            "componentType" : 5126,
            "count" : 120,
            "type" : "VEC3"
        },
        {
            "bufferView" : 21,
            "componentType" : 5126,
            "count" : 120,
            "type" : "VEC2"
        },
        {
            "bufferView" : 22,
            "componentType" : 5123,
            "count" : 204,
            "type" : "SCALAR"
        },
        {
            "bufferView" : 23,
            "componentType" : 5126,
            "count" : 610,
            "max" : [
                0.45136988162994385,
                0.9652384519577026,
                0.45136985182762146
            ],
            "min" : [
                -0.45136985182762146,
                -9.763287955877331e-09,
                -0.45136985182762146
            ],
            "type" : "VEC3"
        },
        {
            "bufferView" : 24,
            "componentType" : 5126,
            "count" : 610,
            "type" : "VEC3"
        },
        {
            "bufferView" : 25,
            "componentType" : 5126,
            "count" : 610,
            "type" : "VEC2"
        },
        {
            "bufferView" : 26,
            "componentType" : 5123,
            "count" : 2004,
            "type" : "SCALAR"
        },
        {
            "bufferView" : 27,
            "componentType" : 5126,
            "count" : 164,
            "max" : [
                1,
                2.188854217529297,
                1
            ],
            "min" : [
                -1,
                0,
                -1
            ],
            "type" : "VEC3"
        },
        {
            "bufferView" : 28,
            "componentType" : 5126,
            "count" : 164,
            "type" : "VEC3"
        },
        {
            "bufferView" : 29,
            "componentType" : 5126,
            "count" : 164,
            "type" : "VEC2"
        },
        {
            "bufferView" : 30,
            "componentType" : 5123,
            "count" : 288,
            "type" : "SCALAR"
        },
        {
            "bufferView" : 31,
            "componentType" : 5126,
            "count" : 136,
            "max" : [
                0.45136988162994385,
                0.08966797590255737,
                0.45136985182762146
            ],
            "min" : [
                -0.45136988162994385,
                0,
                -0.45136985182762146
            ],
            "type" : "VEC3"
        },
        {
            "bufferView" : 32,
            "componentType" : 5126,
            "count" : 136,
            "type" : "VEC3"
        },
        {
            "bufferView" : 33,
            "componentType" : 5126,
            "count" : 136,
            "type" : "VEC2"
        },
        {
            "bufferView" : 34,
            "componentType" : 5123,
            "count" : 384,
            "type" : "SCALAR"
        }
    ],
    "bufferViews" : [
        {
            "buffer" : 0,
            "byteLength" : 2016,
            "byteOffset" : 0
        },
        {
            "buffer" : 0,
            "byteLength" : 2016,
            "byteOffset" : 2016
        },
        {
            "buffer" : 0,
            "byteLength" : 1344,
            "byteOffset" : 4032
        },
        {
            "buffer" : 0,
            "byteLength" : 552,
            "byteOffset" : 5376
        },
        {
            "buffer" : 0,
            "byteLength" : 4248,
            "byteOffset" : 5928
        },
        {
            "buffer" : 0,
            "byteLength" : 4248,
            "byteOffset" : 10176
        },
        {
            "buffer" : 0,
            "byteLength" : 2832,
            "byteOffset" : 14424
        },
        {
            "buffer" : 0,
            "byteLength" : 2388,
            "byteOffset" : 17256
        },
        {
            "buffer" : 0,
            "byteLength" : 1162564,
            "byteOffset" : 19644
        },
        {
            "buffer" : 0,
            "byteLength" : 778039,
            "byteOffset" : 1182208
        },
        {
            "buffer" : 0,
            "byteLength" : 608964,
            "byteOffset" : 1960248
        },
        {
            "buffer" : 0,
            "byteLength" : 2016,
            "byteOffset" : 2569212
        },
        {
            "buffer" : 0,
            "byteLength" : 2016,
            "byteOffset" : 2571228
        },
        {
            "buffer" : 0,
            "byteLength" : 1344,
            "byteOffset" : 2573244
        },
        {
            "buffer" : 0,
            "byteLength" : 552,
            "byteOffset" : 2574588
        },
        {
            "buffer" : 0,
            "byteLength" : 4248,
            "byteOffset" : 2575140
        },
        {
            "buffer" : 0,
            "byteLength" : 4248,
            "byteOffset" : 2579388
        },
        {
            "buffer" : 0,
            "byteLength" : 2832,
            "byteOffset" : 2583636
        },
        {
            "buffer" : 0,
            "byteLength" : 2388,
            "byteOffset" : 2586468
        },
        {
            "buffer" : 0,
            "byteLength" : 1440,
            "byteOffset" : 2588856
        },
        {
            "buffer" : 0,
            "byteLength" : 1440,
            "byteOffset" : 2590296
        },
        {
            "buffer" : 0,
            "byteLength" : 960,
            "byteOffset" : 2591736
        },
        {
            "buffer" : 0,
            "byteLength" : 408,
            "byteOffset" : 2592696
        },
        {
            "buffer" : 0,
            "byteLength" : 7320,
            "byteOffset" : 2593104
        },
        {
            "buffer" : 0,
            "byteLength" : 7320,
            "byteOffset" : 2600424
        },
        {
            "buffer" : 0,
            "byteLength" : 4880,
            "byteOffset" : 2607744
        },
        {
            "buffer" : 0,
            "byteLength" : 4008,
            "byteOffset" : 2612624
        },
        {
            "buffer" : 0,
            "byteLength" : 1968,
            "byteOffset" : 2616632
        },
        {
            "buffer" : 0,
            "byteLength" : 1968,
            "byteOffset" : 2618600
        },
        {
            "buffer" : 0,
            "byteLength" : 1312,
            "byteOffset" : 2620568
        },
        {
            "buffer" : 0,
            "byteLength" : 576,
            "byteOffset" : 2621880
        },
        {
            "buffer" : 0,
            "byteLength" : 1632,
            "byteOffset" : 2622456
        },
        {
            "buffer" : 0,
            "byteLength" : 1632,
            "byteOffset" : 2624088
        },
        {
            "buffer" : 0,
            "byteLength" : 1088,
            "byteOffset" : 2625720
        },
        {
            "buffer" : 0,
            "byteLength" : 768,
            "byteOffset" : 2626808
        }
    ],
    "samplers" : [
        {
            "magFilter" : 9729,
            "minFilter" : 9987
        }
    ],
    "buffers" : [
        {
            "byteLength" : 2627576,
            "uri" : "data:application/octet-stream;base64,"
        }
    ]
}
